<mxfile host="app.diagrams.net" modified="2024-03-09T09:44:25.080Z" agent="Mozilla/5.0 (X11; Linux x86_64; rv:109.0) Gecko/20100101 Firefox/112.0" version="24.0.1" etag="97EHnNLTuZK1rFBKY9ta" type="github">
  <diagram name="Страница — 1" id="NktAr6f9DOURsFpgDQkZ">
    <mxGraphModel>
      <root>
        <mxCell id="0" />
        <mxCell id="1" parent="0" />
      </root>
    </mxGraphModel>
  </diagram>
</mxfile>
